<svg width="100" height="100" viewBox="0 0 100 100" fill="none" xmlns="http://www.w3.org/2000/svg">
<circle opacity="0.6" cx="49.0002" cy="51" r="42" fill="url(#paint0_linear)"/>
<mask id="mask0" mask-type="alpha" maskUnits="userSpaceOnUse" x="7" y="9" width="85" height="84">
<circle cx="49.0002" cy="51" r="42" fill="#F0F8FF"/>
</mask>
<g mask="url(#mask0)">
<path fill-rule="evenodd" clip-rule="evenodd" d="M68.519 34.8345L25.6531 105.138V52.7718H26.3931V101.315L37.5089 64.5049L38.2173 64.7188L27.2141 101.156L67.8872 34.4492L68.519 34.8345Z" fill="#2492F7"/>
<path d="M35.3843 65.1924L37.9882 62.8735C38.2358 62.6531 38.6288 62.7717 38.713 63.0923L39.8289 67.3437C39.9267 67.7161 39.5365 68.0279 39.1948 67.8504L35.4749 65.918C35.1989 65.7746 35.152 65.3992 35.3843 65.1924Z" fill="#2492F7"/>
<path opacity="0.8" d="M36.4014 64.2993L38.0787 62.8616C38.3332 62.6435 38.7284 62.7752 38.8011 63.1024L39.2803 65.2589C39.335 65.5051 39.1738 65.746 38.923 65.7718C38.5148 65.8138 37.9227 65.8407 37.5305 65.71C37.1384 65.5793 36.6809 65.2025 36.3795 64.924C36.1943 64.7528 36.2099 64.4634 36.4014 64.2993Z" fill="#0875DA"/>
<path d="M23.6688 55.594L25.6992 52.203C25.857 51.9394 26.2284 51.9119 26.4233 52.1494L29.0359 55.3326C29.2679 55.6153 29.0778 56.0415 28.7125 56.0578L24.0696 56.2657C23.7161 56.2815 23.4871 55.8976 23.6688 55.594Z" fill="#CEE6FD"/>
<path opacity="0.7" d="M24.4348 54.5313L25.7181 51.9644C25.8706 51.6595 26.2956 51.633 26.4847 51.9167L28.0215 54.2217C28.1623 54.433 28.0971 54.7178 27.8708 54.833C27.4863 55.0286 26.9014 55.2911 26.4304 55.3501C25.8879 55.4181 25.1614 55.2584 24.6896 55.1279C24.4326 55.0568 24.3155 54.7698 24.4348 54.5313Z" fill="#9DCEFB"/>
<path d="M36.3828 37.6018C35.1826 49.114 31.5352 53.1662 26.0228 53.5118C20.5103 53.8574 16.4404 48.32 15.3305 39.81C14.2205 31.3 18.2903 24.2818 25.2828 24.2818C32.2752 24.2818 36.445 29.7131 36.3828 37.6018Z" fill="#CEE6FD"/>
<g opacity="0.1" filter="url(#filter0_f)">
<path d="M33.4968 42.4933C32.0431 45.8014 30.073 47.4731 27.8998 47.6094C24.2189 47.8401 19.196 42.0347 17.5883 35.7874C17.184 34.2162 17.1037 32.6633 17.303 31.2131C16.0049 33.4978 15.5868 36.4467 16.3631 39.4632C17.9707 45.7105 22.9937 51.516 26.6746 51.2852C29.5422 51.1054 32.0561 48.2519 33.4968 42.4933Z" fill="#44A5FF"/>
</g>
<path fill-rule="evenodd" clip-rule="evenodd" d="M22.6692 29.5367C23.2731 29.6421 23.6773 30.217 23.572 30.8209L21.9259 40.2596C21.8805 40.5196 22.1142 40.7421 22.3717 40.6842L23.9245 40.3344L24.0614 35.392C24.0784 34.7792 24.5889 34.2962 25.2017 34.3132C25.8145 34.3302 26.2975 34.8407 26.2806 35.4535L26.1621 39.73L27.4089 39.3617C27.9968 39.188 28.6142 39.5238 28.7879 40.1117C28.9616 40.6996 28.6258 41.317 28.0379 41.4907L26.1079 42.0609L26.0592 45.3484C26.0501 45.9614 25.5458 46.4509 24.9328 46.4418C24.3199 46.4327 23.8303 45.9285 23.8394 45.3155L23.8794 42.6202L22.8594 42.8499C21.0571 43.2558 19.4215 41.6982 19.7389 39.8782L21.385 30.4395C21.4903 29.8356 22.0653 29.4314 22.6692 29.5367Z" fill="#44A5FF"/>
<path d="M54.1428 52.4019C50.5351 60.159 42.175 65.2131 37.8628 63.8719C33.5506 62.5307 31.2951 54.979 32.5782 45.6947C33.8614 36.4104 41.8978 32.0497 47.8527 33.9019C53.8076 35.754 58.1067 43.879 54.1428 52.4019Z" fill="#2492F7"/>
<g opacity="0.2" filter="url(#filter1_f)">
<path d="M47.7691 57.5036C45.883 58.4967 43.8812 58.7981 42.0069 58.2152C37.0608 56.6768 34.8762 49.562 37.1275 42.3238C37.6218 40.7344 38.2889 39.2713 39.0815 37.9718C37.3445 39.7288 35.8883 42.1398 35.0076 44.9713C32.8629 51.8669 34.9441 58.6449 39.656 60.1105C42.349 60.948 45.3184 59.8691 47.7691 57.5036Z" fill="#0875DA"/>
</g>
<path fill-rule="evenodd" clip-rule="evenodd" d="M47.1007 42.5065C47.2002 43.9629 46.7611 45.7146 46.2726 47.2273C45.8442 48.554 45.2856 50.2681 44.5398 51.6645C44.1657 52.3649 43.7137 53.0462 43.1586 53.5716C42.5957 54.1044 41.8737 54.5242 40.9931 54.5652C40.0751 54.6078 39.2735 54.3529 38.6602 53.7964C38.072 53.2625 37.7654 52.5494 37.6116 51.8653C37.3095 50.5209 37.5149 48.9262 37.8202 47.7201C38.4309 45.3074 39.1938 43.1747 40.1388 41.6684C41.0433 40.2267 42.3711 38.9879 44.1452 39.2653C45.0459 39.3466 45.8059 39.7014 46.3377 40.352C46.8533 40.9828 47.0501 41.7656 47.1007 42.5065ZM44.6188 41.7569C44.5281 41.6459 44.3558 41.5084 43.9213 41.4742C43.8874 41.4716 43.8537 41.4673 43.8202 41.4616C43.4233 41.3933 42.8128 41.5835 42.0194 42.8481C41.2578 44.0621 40.5631 45.9308 39.9723 48.2649C39.7034 49.3271 39.5862 50.5269 39.7776 51.3786C39.8707 51.7925 40.0149 52.0279 40.1521 52.1524C40.2642 52.2541 40.4627 52.3674 40.89 52.3476C41.0857 52.3385 41.3276 52.2479 41.6325 51.9594C41.9451 51.6635 42.2645 51.2124 42.5816 50.6187C43.2181 49.4269 43.7207 47.9059 44.1601 46.5451C44.6403 45.0578 44.9541 43.6572 44.8859 42.6577C44.8526 42.1706 44.7354 41.8996 44.6188 41.7569Z" fill="white"/>
</g>
<path d="M64.5538 33.8407L68.9969 31.0084C69.2718 30.8332 69.6354 31.004 69.6761 31.3274L70.4894 37.7927C70.5373 38.1735 70.1121 38.4316 69.7964 38.2134L64.54 34.5804C64.2788 34.3998 64.286 34.0114 64.5538 33.8407Z" fill="#0875DA"/>
<path opacity="0.8" d="M66.0328 32.9052L68.9834 31.0182C69.2614 30.8404 69.6294 31.0173 69.6641 31.3455L70.0408 34.9041C70.0676 35.1572 69.8769 35.3792 69.6223 35.3756C69.0581 35.3675 68.1096 35.3047 67.5001 35C66.8855 34.6926 66.2608 33.9618 65.9176 33.5162C65.7656 33.3188 65.8229 33.0395 66.0328 32.9052Z" fill="#0867BF"/>
<path d="M89.308 20.2771C85.6569 28.8395 73.7585 34.8971 69.0754 32.9001C64.3923 30.9032 64.2379 19.9335 67.288 10.8876C70.9391 2.32516 77.6159 0.0606248 83.6966 2.65348C89.7772 5.24634 92.9591 11.7147 89.308 20.2771Z" fill="#0875DA"/>
<g opacity="0.2" filter="url(#filter2_f)">
<path d="M75.851 28.1423C74.282 28.8807 72.8155 29.1153 71.8888 28.6684C68.7998 27.179 69.1449 14.2011 71.411 12.0719C67.1895 13.4048 65.9337 28.1494 69.7208 29.9754C71.07 30.6259 73.5631 29.8324 75.851 28.1423Z" fill="#0867BF"/>
</g>
<path fill-rule="evenodd" clip-rule="evenodd" d="M80.0924 7.90679C80.5497 8.31504 80.5895 9.01673 80.1813 9.47405L73.509 16.9484C73.3333 17.1453 73.4143 17.4576 73.6636 17.5442L75.3309 18.1239L78.1749 13.8186C78.5128 13.3071 79.2014 13.1664 79.7129 13.5043C80.2244 13.8422 80.3652 14.5307 80.0273 15.0422L77.5504 18.7917L78.905 19.1649C79.4961 19.3277 79.8432 19.9389 79.6803 20.5299C79.5175 21.1209 78.9064 21.468 78.3154 21.3052L76.274 20.7428L74.4148 23.6374C74.0835 24.1532 73.3968 24.3028 72.881 23.9715C72.3652 23.6402 72.2156 22.9535 72.5469 22.4377L74.086 20.0414L72.9346 19.6411C71.1895 19.0345 70.6226 16.8482 71.8529 15.47L78.5251 7.99565C78.9334 7.53833 79.6351 7.49854 80.0924 7.90679Z" fill="#CEE6FD"/>
<defs>
<filter id="filter0_f" x="13.0131" y="28.2531" width="23.4437" height="25.9987" filterUnits="userSpaceOnUse" color-interpolation-filters="sRGB">
<feFlood flood-opacity="0" result="BackgroundImageFix"/>
<feBlend mode="normal" in="SourceGraphic" in2="BackgroundImageFix" result="shape"/>
<feGaussianBlur stdDeviation="1.48" result="effect1_foregroundBlur"/>
</filter>
<filter id="filter1_f" x="30.4631" y="34.2718" width="21.006" height="29.8202" filterUnits="userSpaceOnUse" color-interpolation-filters="sRGB">
<feFlood flood-opacity="0" result="BackgroundImageFix"/>
<feBlend mode="normal" in="SourceGraphic" in2="BackgroundImageFix" result="shape"/>
<feGaussianBlur stdDeviation="1.85" result="effect1_foregroundBlur"/>
</filter>
<filter id="filter2_f" x="64.5026" y="9.1119" width="14.3083" height="24.05" filterUnits="userSpaceOnUse" color-interpolation-filters="sRGB">
<feFlood flood-opacity="0" result="BackgroundImageFix"/>
<feBlend mode="normal" in="SourceGraphic" in2="BackgroundImageFix" result="shape"/>
<feGaussianBlur stdDeviation="1.48" result="effect1_foregroundBlur"/>
</filter>
<linearGradient id="paint0_linear" x1="49.0002" y1="9" x2="49.0002" y2="93" gradientUnits="userSpaceOnUse">
<stop stop-color="#F0F8FF"/>
<stop offset="1" stop-color="#F2F9FF"/>
</linearGradient>
</defs>
</svg>
