<svg width="100" height="100" viewBox="0 0 100 100" fill="none" xmlns="http://www.w3.org/2000/svg">
<circle opacity="0.6" cx="50.0002" cy="50" r="42" fill="url(#paint0_linear)"/>
<path d="M33.8605 23.0484C33.8605 18.8022 35.8548 15.36 39.4105 15.36C42.9661 15.36 44.9605 18.8022 44.9605 23.0484L45.3305 47.92L47.0879 45.8972C47.7256 44.831 48.0685 43.5535 48.0685 42.2432V35.4565C48.0685 33.5531 49.3606 32.01 50.9545 32.01C52.5484 32.01 53.8405 33.5531 53.8405 35.4565V41.9756C53.8405 44.6661 53.1322 47.2885 51.8158 49.4719L45.7005 59.39V82.7H33.1205L33.4905 64.94L27.5705 57.17C25.7205 54.381 25.7205 53.4175 25.7205 50.727V43.48C25.7205 41.5765 26.7166 40.15 28.3105 40.15C29.9044 40.15 30.7525 41.5765 30.7525 43.48V50.727C30.7525 52.0373 31.0953 53.3148 31.733 54.381L33.4905 56.06L33.8605 23.0484Z" fill="#2492F7"/>
<mask id="mask0" mask-type="alpha" maskUnits="userSpaceOnUse" x="25" y="15" width="29" height="68">
<path d="M33.8605 23.0484C33.8605 18.8022 35.8548 15.36 39.4105 15.36C42.9661 15.36 44.9605 18.8022 44.9605 23.0484V48.29L47.0879 45.8972C47.7256 44.831 48.0685 43.5535 48.0685 42.2432V35.4565C48.0685 33.5531 49.3606 32.01 50.9545 32.01C52.5484 32.01 53.8405 33.5531 53.8405 35.4565V41.9756C53.8405 44.6661 53.1322 47.2885 51.8158 49.4719L45.7005 59.39L44.9605 82.7H33.8605L33.4905 64.94L27.2005 56.8C25.8841 54.6166 25.7205 53.4175 25.7205 50.727V43.48C25.7205 41.5765 26.7166 40.15 28.3105 40.15C29.4205 40.15 30.7525 41.5765 30.7525 43.48V50.727C30.7525 52.0373 31.0953 53.3148 31.733 54.381L33.8605 56.43V23.0484Z" fill="#2492F7"/>
</mask>
<g mask="url(#mask0)">
<path d="M34.6003 13.14H35.3403V86.4H34.6003V13.14Z" fill="#44A5FF"/>
<path d="M36.8203 13.14H37.5603V86.4H36.8203V13.14Z" fill="#44A5FF"/>
<path d="M39.0403 13.14H39.7803V86.4H39.0403V13.14Z" fill="#44A5FF"/>
<path d="M41.2603 13.14H42.0003V86.4H41.2603V13.14Z" fill="#44A5FF"/>
<path d="M43.4805 13.14H44.2205V86.4H43.4805V13.14Z" fill="#44A5FF"/>
<path d="M43.8503 51.25C45.2667 50.244 47.7332 47.4426 48.6603 45.33C49.4003 44.22 49.0303 36.08 49.0303 32.01" stroke="#44A5FF" stroke-width="0.74"/>
<path d="M43.8503 54.21C46.4403 51.25 49.4413 48.0738 50.3684 45.9612C51.1325 44.22 50.5103 35.34 50.5103 31.27" stroke="#44A5FF" stroke-width="0.74"/>
<path d="M29.7903 39.04V51.6944C29.7903 53.0682 30.336 54.3858 31.3075 55.3572L34.9703 59.02" stroke="#44A5FF" stroke-width="0.74"/>
<path d="M28.3103 39.41V52.1459C28.3103 53.4713 28.8183 54.7463 29.7299 55.7085L34.9703 61.24" stroke="#44A5FF" stroke-width="0.74"/>
<path d="M26.8303 39.78V52.6826C26.8303 53.9077 27.2646 55.0933 28.056 56.0285L34.9703 64.2" stroke="#44A5FF" stroke-width="0.74"/>
<path d="M43.8503 57.54C45.2667 56.534 50.9213 48.8138 51.8484 46.7012C52.7755 44.5886 52.3603 36.45 52.3603 32.01" stroke="#44A5FF" stroke-width="0.74"/>
</g>
<path d="M74.3552 73.5174C74.3552 73.7725 74.351 74.0254 74.3429 74.2757C76.28 70.4996 78.3958 66.791 78.3958 66.791C78.3958 66.791 79.8313 73.2246 77.7704 77.3361C77.3911 78.0927 76.9579 78.7892 76.5034 79.4221C76.8747 79.1952 77.2638 78.9788 77.6699 78.7781C81.7929 76.7401 85.7495 74.5328 85.7495 74.5328C85.7495 74.5328 83.761 80.7216 79.638 82.7596C75.515 84.7976 71.1887 84.4589 71.1887 84.4589C71.1887 84.4589 71.4803 84.0085 72.0377 83.3358C72.0373 83.311 72.037 83.2853 72.0368 83.2586C71.8599 83.1221 71.6569 82.9597 71.4345 82.7721C69.8047 82.6278 67.5329 82.2186 65.3196 81.1246C61.1967 79.0866 60.6304 72.3426 60.6304 72.3426C60.6304 72.3426 62.989 74.9135 66.857 76.9247C65.0675 72.8785 66.1822 67.9013 66.1822 67.9013C66.1822 67.9013 68.3969 70.5583 70.3384 74.0541C70.3343 73.8764 70.3322 73.6975 70.3322 73.5174C70.3322 67.9628 72.3437 63.46 72.3437 63.46C72.3437 63.46 74.3552 67.9628 74.3552 73.5174Z" fill="#9DCEFB"/>
<path d="M32.9646 75.2999C22.9941 75.2999 16.0874 81.7133 13.8804 84.9199H95.2804C93.0346 84.2476 85.9499 82.9644 74.5033 82.7354C71.2601 80.9089 65.88 78.9999 58.5296 78.9999C54.1578 78.9999 50.3417 79.6752 47.2041 80.6069C44.0918 77.8936 39.3053 75.2999 32.9646 75.2999Z" fill="#CEE6FD"/>
<circle cx="69.3804" cy="36.82" r="5.18" fill="#CEE6FD"/>
<defs>
<linearGradient id="paint0_linear" x1="50.0002" y1="8" x2="50.0002" y2="92" gradientUnits="userSpaceOnUse">
<stop stop-color="#F0F8FF"/>
<stop offset="1" stop-color="#F2F9FF"/>
</linearGradient>
</defs>
</svg>
