<?xml version="1.0" encoding="UTF-8"?>
<!DOCTYPE svg PUBLIC "-//W3C//DTD SVG 1.1//EN" "http://www.w3.org/Graphics/SVG/1.1/DTD/svg11.dtd">
<svg xmlns="http://www.w3.org/2000/svg" version="1.1" width="154px" height="154px" style="shape-rendering:geometricPrecision; text-rendering:geometricPrecision; image-rendering:optimizeQuality; fill-rule:evenodd; clip-rule:evenodd" xmlns:xlink="http://www.w3.org/1999/xlink">
<g><path style="opacity:1" fill="#fdfdfd" d="M -0.5,-0.5 C 50.8333,-0.5 102.167,-0.5 153.5,-0.5C 153.5,50.8333 153.5,102.167 153.5,153.5C 102.167,153.5 50.8333,153.5 -0.5,153.5C -0.5,102.167 -0.5,50.8333 -0.5,-0.5 Z"/></g>
<g><path style="opacity:1" fill="#6a738a" d="M 82.5,16.5 C 75.8198,16.6123 69.1531,16.9457 62.5,17.5C 66.2227,16.0033 70.2227,15.3367 74.5,15.5C 77.3555,15.5025 80.0221,15.8359 82.5,16.5 Z"/></g>
<g><path style="opacity:1" fill="#ff9900" d="M 82.5,16.5 C 88.5152,17.6456 94.5152,19.3123 100.5,21.5C 101.107,21.3764 101.44,21.0431 101.5,20.5C 102.434,19.4324 102.768,18.099 102.5,16.5C 104.833,16.5 107.167,16.5 109.5,16.5C 109.5,23.1667 109.5,29.8333 109.5,36.5C 102.833,36.5 96.1667,36.5 89.5,36.5C 89.5,33.8333 89.5,31.1667 89.5,28.5C 97.322,28.5869 97.322,27.7536 89.5,26C 60.8642,20.5656 40.6976,31.0656 29,57.5C 28.023,59.74 27.523,62.0733 27.5,64.5C 26.3475,70.3188 26.1808,76.3188 27,82.5C 27.1558,85.1909 27.9891,87.5242 29.5,89.5C 29.8954,92.6862 30.8954,95.6862 32.5,98.5C 29.5,99.8333 26.5,99.8333 23.5,98.5C 21.9683,93.3382 20.3017,88.3382 18.5,83.5C 18.3903,75.4754 18.7237,67.4754 19.5,59.5C 24.3165,43.0118 34.3165,30.6784 49.5,22.5C 54.2074,21.6401 58.5407,19.9734 62.5,17.5C 69.1531,16.9457 75.8198,16.6123 82.5,16.5 Z"/></g>
<g><path style="opacity:1" fill="#646d85" d="M 109.5,36.5 C 109.5,29.8333 109.5,23.1667 109.5,16.5C 107.167,16.5 104.833,16.5 102.5,16.5C 102.768,18.099 102.434,19.4324 101.5,20.5C 101.5,18.8333 101.5,17.1667 101.5,15.5C 104.5,15.5 107.5,15.5 110.5,15.5C 110.825,22.6866 110.491,29.6866 109.5,36.5 Z"/></g>
<g><path style="opacity:1" fill="#6d768d" d="M 82.5,16.5 C 89.1305,16.5591 95.4638,17.8925 101.5,20.5C 101.44,21.0431 101.107,21.3764 100.5,21.5C 94.5152,19.3123 88.5152,17.6456 82.5,16.5 Z"/></g>
<g><path style="opacity:1" fill="#505a75" d="M 62.5,17.5 C 58.5407,19.9734 54.2074,21.6401 49.5,22.5C 53.3947,19.8655 57.728,18.1988 62.5,17.5 Z"/></g>
<g><path style="opacity:1" fill="#949bac" d="M 91.5,45.5 C 81.1148,45.2145 70.7815,45.5478 60.5,46.5C 60.6107,45.8826 60.944,45.3826 61.5,45C 71.6753,44.1751 81.6753,44.3417 91.5,45.5 Z"/></g>
<g><path style="opacity:1" fill="#ff9900" d="M 91.5,45.5 C 93.1032,46.5964 94.6032,47.9297 96,49.5C 100.121,56.092 103.954,62.7587 107.5,69.5C 107.5,72.5 107.5,75.5 107.5,78.5C 103.441,84.9407 99.6076,91.6074 96,98.5C 94.8333,99.6667 93.6667,100.833 92.5,102C 81.8333,102.667 71.1667,102.667 60.5,102C 53.7354,93.3041 48.402,83.8041 44.5,73.5C 47.625,67.25 50.7916,60.9167 54,54.5C 55.4675,51.2126 57.6341,48.5459 60.5,46.5C 70.7815,45.5478 81.1148,45.2145 91.5,45.5 Z"/></g>
<g><path style="opacity:1" fill="#ff9900" d="M 134.5,80.5 C 133.216,84.9848 132.216,89.6515 131.5,94.5C 125.669,109.33 115.669,120.33 101.5,127.5C 95.2112,129.827 88.8779,131.494 82.5,132.5C 72.0174,133.556 62.0174,131.889 52.5,127.5C 51.5481,129.045 51.2148,130.712 51.5,132.5C 48.8333,132.5 46.1667,132.5 43.5,132.5C 43.5,125.833 43.5,119.167 43.5,112.5C 50.1667,112.5 56.8333,112.5 63.5,112.5C 63.5,114.833 63.5,117.167 63.5,119.5C 61.2646,119.205 59.2646,119.539 57.5,120.5C 85.7466,129.804 107.247,121.47 122,95.5C 128.429,80.0623 127.929,64.8957 120.5,50C 123.882,49.1764 127.216,49.343 130.5,50.5C 135.221,60.2012 136.555,70.2012 134.5,80.5 Z"/></g>
<g><path style="opacity:1" fill="#f3f4f6" d="M 64.5,53.5 C 72.8599,53.1688 81.1932,53.5021 89.5,54.5C 93.0471,61.097 96.7137,67.597 100.5,74C 96.7137,80.403 93.0471,86.903 89.5,93.5C 81.1667,94.8333 72.8333,94.8333 64.5,93.5C 61.4742,87.4295 57.9742,81.7628 54,76.5C 53.3333,74.8333 53.3333,73.1667 54,71.5C 57.3603,65.333 60.8603,59.333 64.5,53.5 Z"/></g>
<g><path style="opacity:1" fill="#ff9900" d="M 72.5,61.5 C 80.2559,60.4669 85.7559,63.4669 89,70.5C 89.3178,83.5102 83.1512,88.3435 70.5,85C 62.1366,76.406 62.8032,68.5727 72.5,61.5 Z"/></g>
<g><path style="opacity:1" fill="#f3f4f5" d="M 74.5,70.5 C 80.4877,70.664 81.821,73.164 78.5,78C 72.4034,78.1475 71.0701,75.6475 74.5,70.5 Z"/></g>
<g><path style="opacity:1" fill="#c2c6d0" d="M 19.5,59.5 C 18.7237,67.4754 18.3903,75.4754 18.5,83.5C 17.8351,80.5185 17.5018,77.3518 17.5,74C 17.3437,68.9104 18.0103,64.0771 19.5,59.5 Z"/></g>
<g><path style="opacity:1" fill="#ced1d8" d="M 27.5,64.5 C 27.1526,72.9358 27.8193,81.2691 29.5,89.5C 27.9891,87.5242 27.1558,85.1909 27,82.5C 26.1808,76.3188 26.3475,70.3188 27.5,64.5 Z"/></g>
<g><path style="opacity:1" fill="#656e86" d="M 107.5,69.5 C 110.167,72.5 110.167,75.5 107.5,78.5C 107.5,75.5 107.5,72.5 107.5,69.5 Z"/></g>
<g><path style="opacity:1" fill="#57627b" d="M 134.5,80.5 C 134.735,85.5459 133.735,90.2126 131.5,94.5C 132.216,89.6515 133.216,84.9848 134.5,80.5 Z"/></g>
<g><path style="opacity:1" fill="#6a748b" d="M 43.5,112.5 C 50.3134,111.509 57.3134,111.175 64.5,111.5C 64.5,114.5 64.5,117.5 64.5,120.5C 62.1667,120.5 59.8333,120.5 57.5,120.5C 59.2646,119.539 61.2646,119.205 63.5,119.5C 63.5,117.167 63.5,114.833 63.5,112.5C 56.8333,112.5 50.1667,112.5 43.5,112.5 Z"/></g>
<g><path style="opacity:1" fill="#babec9" d="M 101.5,127.5 C 95.8812,131.365 89.5479,133.031 82.5,132.5C 88.8779,131.494 95.2112,129.827 101.5,127.5 Z"/></g>
</svg>
