<?xml version="1.0" encoding="UTF-8"?>
<!DOCTYPE svg PUBLIC "-//W3C//DTD SVG 1.1//EN" "http://www.w3.org/Graphics/SVG/1.1/DTD/svg11.dtd">
<svg xmlns="http://www.w3.org/2000/svg" version="1.1" width="150px" height="150px" style="shape-rendering:geometricPrecision; text-rendering:geometricPrecision; image-rendering:optimizeQuality; fill-rule:evenodd; clip-rule:evenodd" xmlns:xlink="http://www.w3.org/1999/xlink">
<g><path style="opacity:1" fill="#fdfdfd" d="M -0.5,-0.5 C 49.5,-0.5 99.5,-0.5 149.5,-0.5C 149.5,49.5 149.5,99.5 149.5,149.5C 99.5,149.5 49.5,149.5 -0.5,149.5C -0.5,99.5 -0.5,49.5 -0.5,-0.5 Z"/></g>
<g><path style="opacity:1" fill="#666f87" d="M 80.5,14.5 C 72.1554,13.3079 63.8221,13.3079 55.5,14.5C 58.8646,12.9608 62.5313,12.2942 66.5,12.5C 71.4122,12.421 76.0789,13.0877 80.5,14.5 Z"/></g>
<g><path style="opacity:1" fill="#ff9900" d="M 80.5,14.5 C 104.071,20.4044 119.071,35.0711 125.5,58.5C 126.32,64.7974 126.653,71.1308 126.5,77.5C 124.897,89.3162 120.564,99.9828 113.5,109.5C 119.119,116.953 125.619,123.62 133,129.5C 133.749,130.635 133.583,131.635 132.5,132.5C 130.887,134.123 129.22,135.29 127.5,136C 120.924,128.919 113.924,122.419 106.5,116.5C 99.6582,121.254 92.3248,124.921 84.5,127.5C 72.724,130.434 61.0573,130.101 49.5,126.5C 36.2823,122.457 26.1156,114.457 19,102.5C 15.4107,95.3968 12.4107,88.0634 10,80.5C 9.20754,73.7526 9.37421,67.0859 10.5,60.5C 12.411,56.767 13.7444,52.767 14.5,48.5C 20.0998,35.6077 29.0998,25.941 41.5,19.5C 43.9674,19.2451 45.9674,18.2451 47.5,16.5C 50.1522,16.5905 52.4855,15.9238 54.5,14.5C 54.8333,14.5 55.1667,14.5 55.5,14.5C 63.8221,13.3079 72.1554,13.3079 80.5,14.5 Z"/></g>
<g><path style="opacity:1" fill="#6c758c" d="M 54.5,14.5 C 52.4855,15.9238 50.1522,16.5905 47.5,16.5C 49.5145,15.0762 51.8478,14.4095 54.5,14.5 Z"/></g>
<g><path style="opacity:1" fill="#727b91" d="M 47.5,16.5 C 45.9674,18.2451 43.9674,19.2451 41.5,19.5C 43.0326,17.7549 45.0326,16.7549 47.5,16.5 Z"/></g>
<g><path style="opacity:1" fill="#636c85" d="M 88.5,25.5 C 78.1334,21.6636 67.4667,20.6636 56.5,22.5C 66.0449,19.8878 75.7116,20.0545 85.5,23C 86.9423,23.3768 87.9423,24.2101 88.5,25.5 Z"/></g>
<g><path style="opacity:1" fill="#fcfcfd" d="M 88.5,25.5 C 112.947,37.7322 122.447,57.3988 117,84.5C 107.086,111.209 87.9189,123.375 59.5,121C 33.2744,114.107 19.6077,97.1068 18.5,70C 19.852,45.1451 32.5186,29.3118 56.5,22.5C 67.4667,20.6636 78.1334,21.6636 88.5,25.5 Z"/></g>
<g><path style="opacity:1" fill="#59637d" d="M 52.5,50.5 C 52.5,64.1667 52.5,77.8333 52.5,91.5C 54.8333,91.5 57.1667,91.5 59.5,91.5C 59.5,77.8333 59.5,64.1667 59.5,50.5C 60.4958,64.3234 60.8291,78.3234 60.5,92.5C 57.5,92.5 54.5,92.5 51.5,92.5C 51.1709,78.3234 51.5042,64.3234 52.5,50.5 Z"/></g>
<g><path style="opacity:1" fill="#ff9900" d="M 52.5,50.5 C 54.8333,50.5 57.1667,50.5 59.5,50.5C 59.5,64.1667 59.5,77.8333 59.5,91.5C 57.1667,91.5 54.8333,91.5 52.5,91.5C 52.5,77.8333 52.5,64.1667 52.5,50.5 Z"/></g>
<g><path style="opacity:1" fill="#737b91" d="M 14.5,48.5 C 13.7444,52.767 12.411,56.767 10.5,60.5C 10.8606,56.0845 12.1939,52.0845 14.5,48.5 Z"/></g>
<g><path style="opacity:1" fill="#6d778d" d="M 76.5,58.5 C 79.5,58.5 82.5,58.5 85.5,58.5C 85.5,69.8333 85.5,81.1667 85.5,92.5C 82.5,92.5 79.5,92.5 76.5,92.5C 76.5,81.1667 76.5,69.8333 76.5,58.5 Z"/></g>
<g><path style="opacity:1" fill="#ff9900" d="M 77.5,59.5 C 79.8333,59.5 82.1667,59.5 84.5,59.5C 84.5,70.1667 84.5,80.8333 84.5,91.5C 82.1667,91.5 79.8333,91.5 77.5,91.5C 77.5,80.8333 77.5,70.1667 77.5,59.5 Z"/></g>
<g><path style="opacity:1" fill="#9ca2b2" d="M 47.5,68.5 C 44.8333,68.5 42.1667,68.5 39.5,68.5C 39.5,76.5 39.5,84.5 39.5,92.5C 38.5073,84.3501 38.1739,76.0168 38.5,67.5C 41.7131,67.19 44.7131,67.5233 47.5,68.5 Z"/></g>
<g><path style="opacity:1" fill="#ff9900" d="M 47.5,68.5 C 47.5,76.5 47.5,84.5 47.5,92.5C 44.8333,92.5 42.1667,92.5 39.5,92.5C 39.5,84.5 39.5,76.5 39.5,68.5C 42.1667,68.5 44.8333,68.5 47.5,68.5 Z"/></g>
<g><path style="opacity:1" fill="#acb1be" d="M 72.5,68.5 C 69.8333,68.5 67.1667,68.5 64.5,68.5C 64.5,76.5 64.5,84.5 64.5,92.5C 63.5073,84.3501 63.1739,76.0168 63.5,67.5C 66.7131,67.19 69.7131,67.5233 72.5,68.5 Z"/></g>
<g><path style="opacity:1" fill="#ff9900" d="M 72.5,68.5 C 72.5,76.5 72.5,84.5 72.5,92.5C 69.8333,92.5 67.1667,92.5 64.5,92.5C 64.5,84.5 64.5,76.5 64.5,68.5C 67.1667,68.5 69.8333,68.5 72.5,68.5 Z"/></g>
<g><path style="opacity:1" fill="#a8adba" d="M 125.5,58.5 C 127.039,61.8646 127.706,65.5313 127.5,69.5C 127.497,72.3555 127.164,75.0221 126.5,77.5C 126.653,71.1308 126.32,64.7974 125.5,58.5 Z"/></g>
<g><path style="opacity:1" fill="#ff9900" d="M 89.5,76.5 C 92.1667,76.5 94.8333,76.5 97.5,76.5C 97.5,81.8333 97.5,87.1667 97.5,92.5C 94.8333,92.5 92.1667,92.5 89.5,92.5C 89.5,87.1667 89.5,81.8333 89.5,76.5 Z"/></g>
<g><path style="opacity:1" fill="#abb0bd" d="M 49.5,126.5 C 61.0573,130.101 72.724,130.434 84.5,127.5C 74.4442,130.772 64.1109,131.272 53.5,129C 51.6803,128.8 50.347,127.966 49.5,126.5 Z"/></g>
</svg>
