<?xml version="1.0" encoding="UTF-8"?>
<!DOCTYPE svg PUBLIC "-//W3C//DTD SVG 1.1//EN" "http://www.w3.org/Graphics/SVG/1.1/DTD/svg11.dtd">
<svg xmlns="http://www.w3.org/2000/svg" version="1.1" width="154px" height="152px" style="shape-rendering:geometricPrecision; text-rendering:geometricPrecision; image-rendering:optimizeQuality; fill-rule:evenodd; clip-rule:evenodd" xmlns:xlink="http://www.w3.org/1999/xlink">
<g><path style="opacity:1" fill="#fefefe" d="M -0.5,-0.5 C 50.8333,-0.5 102.167,-0.5 153.5,-0.5C 153.5,50.1667 153.5,100.833 153.5,151.5C 102.167,151.5 50.8333,151.5 -0.5,151.5C -0.5,100.833 -0.5,50.1667 -0.5,-0.5 Z"/></g>
<g><path style="opacity:1" fill="#ff9900" d="M 45.5,21.5 C 45.7394,23.4672 45.4061,25.3005 44.5,27C 40.1667,27.3333 35.8333,27.6667 31.5,28C 30.944,28.3826 30.6107,28.8826 30.5,29.5C 29.7275,33.7496 29.2275,38.0829 29,42.5C 26.506,45.0858 24.006,45.0858 21.5,42.5C 20.9603,35.5911 21.6269,28.9245 23.5,22.5C 24.0577,21.2101 25.0577,20.3768 26.5,20C 32.1667,19.3333 37.8333,19.3333 43.5,20C 44.0442,20.7172 44.7109,21.2172 45.5,21.5 Z"/></g>
<g><path style="opacity:1" fill="#ff9900" d="M 134.5,21.5 C 134.685,23.1958 135.519,24.5291 137,25.5C 137.499,31.1569 137.666,36.8236 137.5,42.5C 135.121,45.1402 132.621,45.1402 130,42.5C 129.667,38.5 129.333,34.5 129,30.5C 128.5,30 128,29.5 127.5,29C 123.5,28.6667 119.5,28.3333 115.5,28C 112.966,25.2533 112.966,22.5867 115.5,20C 121.167,19.3333 126.833,19.3333 132.5,20C 133.044,20.7172 133.711,21.2172 134.5,21.5 Z"/></g>
<g><path style="opacity:1" fill="#a3a9b7" d="M 23.5,22.5 C 21.6269,28.9245 20.9603,35.5911 21.5,42.5C 20.3475,36.6812 20.1808,30.6812 21,24.5C 21.7083,23.6195 22.5416,22.9528 23.5,22.5 Z"/></g>
<g><path style="opacity:1" fill="#a0a5b4" d="M 45.5,21.5 C 46.8112,23.5598 46.8112,25.7265 45.5,28C 40.4512,28.2724 35.4512,28.7724 30.5,29.5C 30.6107,28.8826 30.944,28.3826 31.5,28C 35.8333,27.6667 40.1667,27.3333 44.5,27C 45.4061,25.3005 45.7394,23.4672 45.5,21.5 Z"/></g>
<g><path style="opacity:1" fill="#5c6680" d="M 134.5,21.5 C 135.794,22.2899 136.961,23.2899 138,24.5C 138.819,30.6812 138.653,36.6812 137.5,42.5C 137.666,36.8236 137.499,31.1569 137,25.5C 135.519,24.5291 134.685,23.1958 134.5,21.5 Z"/></g>
<g><path style="opacity:1" fill="#ff9900" d="M 75.5,45.5 C 78.1667,45.5 80.8333,45.5 83.5,45.5C 83.5,67.5 83.5,89.5 83.5,111.5C 80.8333,111.5 78.1667,111.5 75.5,111.5C 75.5,89.5 75.5,67.5 75.5,45.5 Z"/></g>
<g><path style="opacity:1" fill="#a6acba" d="M 75.5,45.5 C 78.2869,44.5233 81.2869,44.19 84.5,44.5C 84.8308,67.0062 84.4974,89.3396 83.5,111.5C 83.5,89.5 83.5,67.5 83.5,45.5C 80.8333,45.5 78.1667,45.5 75.5,45.5 Z"/></g>
<g><path style="opacity:1" fill="#ff9900" d="M 104.5,53.5 C 107.5,53.5 110.5,53.5 113.5,53.5C 113.5,72.8333 113.5,92.1667 113.5,111.5C 110.5,111.5 107.5,111.5 104.5,111.5C 104.5,92.1667 104.5,72.8333 104.5,53.5 Z"/></g>
<g><path style="opacity:1" fill="#b3b7c4" d="M 54.5,70.5 C 51.8333,70.5 49.1667,70.5 46.5,70.5C 46.5,84.1667 46.5,97.8333 46.5,111.5C 45.5042,97.6766 45.1709,83.6766 45.5,69.5C 48.7131,69.19 51.7131,69.5233 54.5,70.5 Z"/></g>
<g><path style="opacity:1" fill="#ff9900" d="M 54.5,70.5 C 54.5,84.1667 54.5,97.8333 54.5,111.5C 51.8333,111.5 49.1667,111.5 46.5,111.5C 46.5,97.8333 46.5,84.1667 46.5,70.5C 49.1667,70.5 51.8333,70.5 54.5,70.5 Z"/></g>
<g><path style="opacity:1" fill="#ff9900" d="M 23.5,111.5 C 25.7224,111.178 27.5557,111.845 29,113.5C 29.3333,117.833 29.6667,122.167 30,126.5C 30.5,127 31,127.5 31.5,128C 36.2824,128.119 40.9491,128.785 45.5,130C 46.9348,132.267 46.6015,134.267 44.5,136C 38.5,136.667 32.5,136.667 26.5,136C 25.0692,135.535 23.9025,134.701 23,133.5C 20.8515,125.984 21.0182,118.651 23.5,111.5 Z"/></g>
<g><path style="opacity:1" fill="#ff9900" d="M 133.5,135.5 C 127.559,136.413 121.559,136.746 115.5,136.5C 112.914,133.994 112.914,131.494 115.5,129C 119.5,128.667 123.5,128.333 127.5,128C 128.044,127.283 128.711,126.783 129.5,126.5C 130.273,121.971 130.94,117.305 131.5,112.5C 133.605,111.181 135.605,111.514 137.5,113.5C 138.664,119.472 138.83,125.472 138,131.5C 136.629,133.041 135.129,134.375 133.5,135.5 Z"/></g>
<g><path style="opacity:1" fill="#6e778e" d="M 131.5,112.5 C 130.94,117.305 130.273,121.971 129.5,126.5C 129.334,122.154 129.501,117.821 130,113.5C 130.383,112.944 130.883,112.611 131.5,112.5 Z"/></g>
<g><path style="opacity:1" fill="#a7adbb" d="M 133.5,135.5 C 133.389,136.117 133.056,136.617 132.5,137C 126.651,137.818 120.985,137.652 115.5,136.5C 121.559,136.746 127.559,136.413 133.5,135.5 Z"/></g>
</svg>
