<?xml version="1.0" encoding="UTF-8"?>
<!DOCTYPE svg PUBLIC "-//W3C//DTD SVG 1.1//EN" "http://www.w3.org/Graphics/SVG/1.1/DTD/svg11.dtd">
<svg xmlns="http://www.w3.org/2000/svg" version="1.1" width="154px" height="150px" style="shape-rendering:geometricPrecision; text-rendering:geometricPrecision; image-rendering:optimizeQuality; fill-rule:evenodd; clip-rule:evenodd" xmlns:xlink="http://www.w3.org/1999/xlink">
<g><path style="opacity:1" fill="#fefefe" d="M -0.5,-0.5 C 50.8333,-0.5 102.167,-0.5 153.5,-0.5C 153.5,49.5 153.5,99.5 153.5,149.5C 102.167,149.5 50.8333,149.5 -0.5,149.5C -0.5,99.5 -0.5,49.5 -0.5,-0.5 Z"/></g>
<g><path style="opacity:1" fill="#a9aebc" d="M 129.5,26.5 C 93.4569,26.1797 57.4569,26.513 21.5,27.5C 21.6107,26.8826 21.944,26.3826 22.5,26C 58.3357,25.169 94.0024,25.3357 129.5,26.5 Z"/></g>
<g><path style="opacity:1" fill="#ff9900" d="M 129.5,26.5 C 131.475,27.6464 132.975,29.313 134,31.5C 134.667,55.8333 134.667,80.1667 134,104.5C 133.31,106.35 132.144,107.684 130.5,108.5C 94.137,109.828 57.8036,109.828 21.5,108.5C 19.39,107.547 18.2233,105.881 18,103.5C 17.3333,79.5 17.3333,55.5 18,31.5C 18.66,29.6763 19.8267,28.343 21.5,27.5C 57.4569,26.513 93.4569,26.1797 129.5,26.5 Z"/></g>
<g><path style="opacity:1" fill="#fcfcfd" d="M 25.5,34.5 C 59.1667,34.5 92.8333,34.5 126.5,34.5C 126.5,56.8333 126.5,79.1667 126.5,101.5C 92.8333,101.5 59.1667,101.5 25.5,101.5C 25.5,79.1667 25.5,56.8333 25.5,34.5 Z"/></g>
<g><path style="opacity:1" fill="#6d768d" d="M 71.5,42.5 C 74.5,42.5 77.5,42.5 80.5,42.5C 80.5,58.1667 80.5,73.8333 80.5,89.5C 77.5,89.5 74.5,89.5 71.5,89.5C 71.5,73.8333 71.5,58.1667 71.5,42.5 Z"/></g>
<g><path style="opacity:1" fill="#ff9900" d="M 72.5,43.5 C 74.8333,43.5 77.1667,43.5 79.5,43.5C 79.5,58.5 79.5,73.5 79.5,88.5C 77.1667,88.5 74.8333,88.5 72.5,88.5C 72.5,73.5 72.5,58.5 72.5,43.5 Z"/></g>
<g><path style="opacity:1" fill="#868da1" d="M 51.5,55.5 C 51.5,66.5 51.5,77.5 51.5,88.5C 54.1667,88.5 56.8333,88.5 59.5,88.5C 56.7131,89.4767 53.7131,89.81 50.5,89.5C 50.1719,77.9877 50.5052,66.6544 51.5,55.5 Z"/></g>
<g><path style="opacity:1" fill="#ff9900" d="M 51.5,55.5 C 54.1667,55.5 56.8333,55.5 59.5,55.5C 59.5,66.5 59.5,77.5 59.5,88.5C 56.8333,88.5 54.1667,88.5 51.5,88.5C 51.5,77.5 51.5,66.5 51.5,55.5 Z"/></g>
<g><path style="opacity:1" fill="#57627c" d="M 100.5,63.5 C 100.5,63.8333 100.5,64.1667 100.5,64.5C 98.1667,64.5 95.8333,64.5 93.5,64.5C 93.5,72.5 93.5,80.5 93.5,88.5C 93.1667,88.5 92.8333,88.5 92.5,88.5C 92.5,80.1667 92.5,71.8333 92.5,63.5C 95.1667,63.5 97.8333,63.5 100.5,63.5 Z"/></g>
<g><path style="opacity:1" fill="#ff9900" d="M 100.5,64.5 C 100.5,72.5 100.5,80.5 100.5,88.5C 98.1667,88.5 95.8333,88.5 93.5,88.5C 93.5,80.5 93.5,72.5 93.5,64.5C 95.8333,64.5 98.1667,64.5 100.5,64.5 Z"/></g>
<g><path style="opacity:1" fill="#80889c" d="M 100.5,63.5 C 101.493,71.9839 101.826,80.6506 101.5,89.5C 98.2869,89.81 95.2869,89.4767 92.5,88.5C 92.8333,88.5 93.1667,88.5 93.5,88.5C 95.8333,88.5 98.1667,88.5 100.5,88.5C 100.5,80.5 100.5,72.5 100.5,64.5C 100.5,64.1667 100.5,63.8333 100.5,63.5 Z"/></g>
<g><path style="opacity:1" fill="#c1c5cf" d="M 21.5,108.5 C 57.8036,109.828 94.137,109.828 130.5,108.5C 112.679,109.833 94.5125,110.5 76,110.5C 57.4875,110.5 39.3208,109.833 21.5,108.5 Z"/></g>
<g><path style="opacity:1" fill="#ff9900" d="M 46.5,118.5 C 66.1667,118.5 85.8333,118.5 105.5,118.5C 105.5,121.167 105.5,123.833 105.5,126.5C 85.8333,126.5 66.1667,126.5 46.5,126.5C 46.5,123.833 46.5,121.167 46.5,118.5 Z"/></g>
</svg>
