<?xml version="1.0" encoding="UTF-8"?>
<!DOCTYPE svg PUBLIC "-//W3C//DTD SVG 1.1//EN" "http://www.w3.org/Graphics/SVG/1.1/DTD/svg11.dtd">
<svg xmlns="http://www.w3.org/2000/svg" version="1.1" width="156px" height="154px" style="shape-rendering:geometricPrecision; text-rendering:geometricPrecision; image-rendering:optimizeQuality; fill-rule:evenodd; clip-rule:evenodd" xmlns:xlink="http://www.w3.org/1999/xlink">
<g><path style="opacity:1" fill="#fdfdfe" d="M -0.5,-0.5 C 51.5,-0.5 103.5,-0.5 155.5,-0.5C 155.5,50.8333 155.5,102.167 155.5,153.5C 103.5,153.5 51.5,153.5 -0.5,153.5C -0.5,102.167 -0.5,50.8333 -0.5,-0.5 Z"/></g>
<g><path style="opacity:1" fill="#ff9900" d="M 98.5,23.5 C 100.033,25.2451 102.033,26.2451 104.5,26.5C 114.529,31.5973 124.696,36.5973 135,41.5C 135.667,63.8333 135.667,86.1667 135,108.5C 126.034,113.065 117.201,117.731 108.5,122.5C 106.973,122.427 105.973,123.094 105.5,124.5C 96.003,129.414 86.3364,134.081 76.5,138.5C 63.5065,132.67 50.8399,126.337 38.5,119.5C 38.0269,118.094 37.0269,117.427 35.5,117.5C 29.9432,114.554 24.2765,111.888 18.5,109.5C 18.1669,86.4903 18.5003,63.4903 19.5,40.5C 38.2069,31.0406 57.2069,22.0406 76.5,13.5C 84.123,16.3135 91.4563,19.6468 98.5,23.5 Z"/></g>
<g><path style="opacity:1" fill="#fbfbfb" d="M 108.5,50.5 C 106.033,50.7549 104.033,51.7549 102.5,53.5C 93.9306,57.3682 85.4306,61.3682 77,65.5C 63.146,59.8218 49.646,53.4885 36.5,46.5C 34.8624,45.2954 34.5291,43.9621 35.5,42.5C 48.7497,35.0935 62.4164,28.4268 76.5,22.5C 91.2842,29.3919 105.951,36.5586 120.5,44C 116.278,45.9409 112.278,48.1076 108.5,50.5 Z"/></g>
<g><path style="opacity:1" fill="#858d9f" d="M 98.5,23.5 C 100.967,23.7549 102.967,24.7549 104.5,26.5C 102.033,26.2451 100.033,25.2451 98.5,23.5 Z"/></g>
<g><path style="opacity:1" fill="#adb1be" d="M 35.5,42.5 C 34.5291,43.9621 34.8624,45.2954 36.5,46.5C 32.1919,45.3206 31.8585,43.9873 35.5,42.5 Z"/></g>
<g><path style="opacity:1" fill="#d1d5dc" d="M 28.5,52.5 C 27.1759,69.7355 27.1759,87.0688 28.5,104.5C 27.1685,96.0262 26.5018,87.1929 26.5,78C 26.8333,69.1667 27.1667,60.3333 27.5,51.5C 28.1067,51.6236 28.44,51.9569 28.5,52.5 Z"/></g>
<g><path style="opacity:1" fill="#939baa" d="M 124.5,51.5 C 125.209,50.596 126.209,50.2627 127.5,50.5C 127.83,68.3412 127.497,86.0079 126.5,103.5C 127.153,85.8011 126.486,68.4678 124.5,51.5 Z"/></g>
<g><path style="opacity:1" fill="#fdfdfd" d="M 28.5,52.5 C 43.2081,59.1893 57.8747,65.856 72.5,72.5C 72.8329,90.8454 72.4996,109.179 71.5,127.5C 64.2887,124.063 57.2887,120.396 50.5,116.5C 50.0269,115.094 49.0269,114.427 47.5,114.5C 40.9426,111.39 34.6093,108.057 28.5,104.5C 27.1759,87.0688 27.1759,69.7355 28.5,52.5 Z"/></g>
<g><path style="opacity:1" fill="#757e94" d="M 108.5,50.5 C 106.967,52.2451 104.967,53.2451 102.5,53.5C 104.033,51.7549 106.033,50.7549 108.5,50.5 Z"/></g>
<g><path style="opacity:1" fill="#fcfdfd" d="M 124.5,51.5 C 126.486,68.4678 127.153,85.8011 126.5,103.5C 115.174,109.496 103.841,115.496 92.5,121.5C 90.9731,121.427 89.9731,122.094 89.5,123.5C 86.9476,124.693 84.4476,126.027 82,127.5C 81.5001,108.836 81.3334,90.1696 81.5,71.5C 94.3923,66.3882 107.059,60.7215 119.5,54.5C 121.027,54.573 122.027,53.9063 122.5,52.5C 123.492,52.6716 124.158,52.3382 124.5,51.5 Z"/></g>
<g><path style="opacity:1" fill="#9298aa" d="M 122.5,52.5 C 122.027,53.9063 121.027,54.573 119.5,54.5C 119.973,53.0937 120.973,52.427 122.5,52.5 Z"/></g>
<g><path style="opacity:1" fill="#7d8498" d="M 47.5,114.5 C 49.0269,114.427 50.0269,115.094 50.5,116.5C 48.9731,116.573 47.9731,115.906 47.5,114.5 Z"/></g>
<g><path style="opacity:1" fill="#838a9f" d="M 35.5,117.5 C 37.0269,117.427 38.0269,118.094 38.5,119.5C 36.9731,119.573 35.9731,118.906 35.5,117.5 Z"/></g>
<g><path style="opacity:1" fill="#828a9d" d="M 92.5,121.5 C 92.0269,122.906 91.0269,123.573 89.5,123.5C 89.9731,122.094 90.9731,121.427 92.5,121.5 Z"/></g>
<g><path style="opacity:1" fill="#9399aa" d="M 108.5,122.5 C 108.027,123.906 107.027,124.573 105.5,124.5C 105.973,123.094 106.973,122.427 108.5,122.5 Z"/></g>
</svg>
