<?xml version="1.0" encoding="UTF-8"?>
<svg width="95px" height="120px" viewBox="0 0 95 120" version="1.1" xmlns="http://www.w3.org/2000/svg" xmlns:xlink="http://www.w3.org/1999/xlink">
    <!-- Generator: Sketch 51.2 (57519) - http://www.bohemiancoding.com/sketch -->
    <title>icon_file</title>
    <desc>Created with Sketch.</desc>
    <defs></defs>
    <g id="UI" stroke="none" stroke-width="1" fill="none" fill-rule="evenodd" opacity="0.5">
        <g id="3_1_Studio_source_new-Copy" transform="translate(-802.000000, -342.000000)">
            <g id="Group-5" transform="translate(802.000000, 342.000000)">
                <g id="icon_file">
                    <polygon id="Path" fill="#FFFFFF" points="62.992126 0 0 0 0 119.055118 94.488189 119.055118 94.488189 29.7637795"></polygon>
                    <path d="M62.992126,0 L0,0 L0,119.685039 L94.488189,119.685039 L94.488189,29.9212598 L62.992126,0 Z M55.7480315,36.5804274 L88.503937,36.5804274 L88.503937,113.070866 L6.61417323,113.070866 L6.61417323,5.98425197 L55.7480315,5.98425197 L55.7480315,36.5804274 Z M62.992126,31.496063 L62.992126,7.87401575 L86.6141732,31.496063 L62.992126,31.496063 Z" id="Shape" fill="#B0BEC5" fill-rule="nonzero"></path>
                    <path d="M33.7439189,50.0787402 C23.8050647,50.0787402 15.7480315,58.1354238 15.7480315,68.0721306 L15.7480315,101.732283 L78.1102362,101.732283 L78.1102362,68.0721306 C78.1102362,58.1346555 70.0532926,50.0787402 60.1143488,50.0787402 L33.7439189,50.0787402 Z M31.3385827,93.1233596 L23.5433071,93.1233596 L23.5433071,84.5144357 L31.3385827,84.5144357 L31.3385827,93.1233596 Z M31.3385827,75.9055118 L23.5433071,75.9055118 L23.5433071,67.2965879 L31.3385827,67.2965879 L31.3385827,75.9055118 Z M54.7244094,93.1233596 L39.1338583,93.1233596 L39.1338583,84.5144357 L54.7244094,84.5144357 L54.7244094,93.1233596 Z M54.7244094,75.9055118 L39.1338583,75.9055118 L39.1338583,67.2965879 L54.7244094,67.2965879 L54.7244094,75.9055118 Z M70.3149606,93.1233596 L62.519685,93.1233596 L62.519685,84.5144357 L70.3149606,84.5144357 L70.3149606,93.1233596 Z M70.3149606,75.9055118 L62.519685,75.9055118 L62.519685,67.2965879 L70.3149606,67.2965879 L70.3149606,75.9055118 Z" id="Shape" fill="#B0BEC5" fill-rule="nonzero"></path>
                </g>
            </g>
        </g>
    </g>
</svg>