<?xml version="1.0" encoding="UTF-8"?>
<svg width="12px" height="12px" viewBox="0 0 12 12" version="1.1" xmlns="http://www.w3.org/2000/svg" xmlns:xlink="http://www.w3.org/1999/xlink">
    <!-- Generator: Sketch 49.2 (51160) - http://www.bohemiancoding.com/sketch -->
    <title>Shape</title>
    <desc>Created with Sketch.</desc>
    <defs></defs>
    <g id="Smyblos" stroke="none" stroke-width="1" fill="none" fill-rule="evenodd">
        <g id="icon_enlarge" transform="translate(-6.000000, -6.000000)" fill="#FFFFFF" fill-rule="nonzero">
            <g id="Group-42">
                <g id="plus-square-o" transform="translate(5.417500, 5.835000)">
                    <path d="M11.4860782,5.365125 L7.39511844,5.365125 L7.39511844,1.236375 C7.39511844,0.788625 7.03618409,0.426375 6.59253233,0.426375 C6.14888056,0.426375 5.78994622,0.788625 5.78994622,1.236375 L5.78994622,5.365125 L1.6766924,5.365125 C1.23304063,5.365125 0.874106287,5.727375 0.874106287,6.175125 C0.874106287,6.622875 1.23304063,6.985125 1.6766924,6.985125 L5.78994622,6.985125 L5.78994622,11.091375 C5.78994622,11.539125 6.14888056,11.901375 6.59253233,11.901375 C7.03618409,11.901375 7.39511844,11.539125 7.39511844,11.091375 L7.39511844,6.985125 L11.4860782,6.985125 C11.92973,6.985125 12.2886643,6.622875 12.2886643,6.175125 C12.2886643,5.727375 11.92973,5.365125 11.4860782,5.365125 Z" id="Shape"></path>
                </g>
            </g>
        </g>
    </g>
</svg>